<mxfile host="Electron" modified="2024-07-07T14:24:03.497Z" agent="Mozilla/5.0 (Windows NT 10.0; Win64; x64) AppleWebKit/537.36 (KHTML, like Gecko) draw.io/24.5.3 Chrome/124.0.6367.207 Electron/30.0.6 Safari/537.36" etag="xR_1KHrfoaWpssKl8vaA" version="24.5.3" type="device">
  <diagram name="Page-1" id="Hyj0w5Wk2uv5xPE97oOx">
    <mxGraphModel dx="600" dy="355" grid="1" gridSize="10" guides="1" tooltips="1" connect="1" arrows="1" fold="1" page="1" pageScale="1" pageWidth="900" pageHeight="1600" math="0" shadow="0">
      <root>
        <mxCell id="0" />
        <mxCell id="1" parent="0" />
        <mxCell id="dNBZEdD4rDrv7bjeEUcx-10" style="edgeStyle=orthogonalEdgeStyle;rounded=0;orthogonalLoop=1;jettySize=auto;html=1;entryX=1;entryY=1;entryDx=0;entryDy=0;exitX=0.5;exitY=0;exitDx=0;exitDy=0;" parent="1" source="dNBZEdD4rDrv7bjeEUcx-1" target="dNBZEdD4rDrv7bjeEUcx-9" edge="1">
          <mxGeometry relative="1" as="geometry">
            <Array as="points">
              <mxPoint x="515" y="410" />
              <mxPoint x="468" y="410" />
            </Array>
          </mxGeometry>
        </mxCell>
        <mxCell id="dNBZEdD4rDrv7bjeEUcx-1" value="&lt;font style=&quot;font-size: 18px;&quot;&gt;-&lt;/font&gt;" style="ellipse;whiteSpace=wrap;html=1;aspect=fixed;fillColor=#d5e8d4;strokeColor=#82b366;" parent="1" vertex="1">
          <mxGeometry x="490" y="420" width="50" height="50" as="geometry" />
        </mxCell>
        <mxCell id="dNBZEdD4rDrv7bjeEUcx-3" style="edgeStyle=orthogonalEdgeStyle;rounded=0;orthogonalLoop=1;jettySize=auto;html=1;entryX=1;entryY=1;entryDx=0;entryDy=0;exitX=0.5;exitY=0;exitDx=0;exitDy=0;" parent="1" source="dNBZEdD4rDrv7bjeEUcx-2" target="dNBZEdD4rDrv7bjeEUcx-1" edge="1">
          <mxGeometry relative="1" as="geometry" />
        </mxCell>
        <mxCell id="dNBZEdD4rDrv7bjeEUcx-2" value="127" style="text;html=1;align=center;verticalAlign=middle;whiteSpace=wrap;rounded=0;" parent="1" vertex="1">
          <mxGeometry x="540" y="520" width="60" height="30" as="geometry" />
        </mxCell>
        <mxCell id="dNBZEdD4rDrv7bjeEUcx-5" style="edgeStyle=orthogonalEdgeStyle;rounded=0;orthogonalLoop=1;jettySize=auto;html=1;entryX=0;entryY=1;entryDx=0;entryDy=0;" parent="1" source="dNBZEdD4rDrv7bjeEUcx-4" target="dNBZEdD4rDrv7bjeEUcx-1" edge="1">
          <mxGeometry relative="1" as="geometry" />
        </mxCell>
        <mxCell id="dNBZEdD4rDrv7bjeEUcx-4" value="f exponent" style="text;html=1;align=center;verticalAlign=middle;whiteSpace=wrap;rounded=0;" parent="1" vertex="1">
          <mxGeometry x="430" y="520" width="60" height="30" as="geometry" />
        </mxCell>
        <mxCell id="dNBZEdD4rDrv7bjeEUcx-11" style="edgeStyle=orthogonalEdgeStyle;rounded=0;orthogonalLoop=1;jettySize=auto;html=1;entryX=0;entryY=1;entryDx=0;entryDy=0;" parent="1" source="dNBZEdD4rDrv7bjeEUcx-7" target="dNBZEdD4rDrv7bjeEUcx-9" edge="1">
          <mxGeometry relative="1" as="geometry">
            <Array as="points">
              <mxPoint x="370" y="410" />
              <mxPoint x="432" y="410" />
            </Array>
          </mxGeometry>
        </mxCell>
        <mxCell id="dNBZEdD4rDrv7bjeEUcx-7" value="{32&#39;d1,mantissa}" style="text;html=1;align=center;verticalAlign=middle;whiteSpace=wrap;rounded=0;" parent="1" vertex="1">
          <mxGeometry x="320" y="430" width="90" height="30" as="geometry" />
        </mxCell>
        <mxCell id="dNBZEdD4rDrv7bjeEUcx-12" style="edgeStyle=orthogonalEdgeStyle;rounded=0;orthogonalLoop=1;jettySize=auto;html=1;entryX=0.5;entryY=1;entryDx=0;entryDy=0;" parent="1" source="dNBZEdD4rDrv7bjeEUcx-9" target="dNBZEdD4rDrv7bjeEUcx-13" edge="1">
          <mxGeometry relative="1" as="geometry">
            <mxPoint x="450" y="310" as="targetPoint" />
          </mxGeometry>
        </mxCell>
        <mxCell id="CSwxi2Fi_aDdpuNFnSFw-3" value="55 bits wide" style="edgeLabel;html=1;align=center;verticalAlign=middle;resizable=0;points=[];" parent="dNBZEdD4rDrv7bjeEUcx-12" vertex="1" connectable="0">
          <mxGeometry x="0.28" y="3" relative="1" as="geometry">
            <mxPoint as="offset" />
          </mxGeometry>
        </mxCell>
        <mxCell id="dNBZEdD4rDrv7bjeEUcx-9" value="&lt;font style=&quot;font-size: 18px;&quot;&gt;&amp;lt;&amp;lt;&lt;/font&gt;" style="ellipse;whiteSpace=wrap;html=1;aspect=fixed;fillColor=#d5e8d4;strokeColor=#82b366;" parent="1" vertex="1">
          <mxGeometry x="425" y="340" width="50" height="50" as="geometry" />
        </mxCell>
        <mxCell id="dNBZEdD4rDrv7bjeEUcx-15" style="edgeStyle=orthogonalEdgeStyle;rounded=0;orthogonalLoop=1;jettySize=auto;html=1;entryX=0.75;entryY=1;entryDx=0;entryDy=0;" parent="1" source="dNBZEdD4rDrv7bjeEUcx-13" target="dNBZEdD4rDrv7bjeEUcx-14" edge="1">
          <mxGeometry relative="1" as="geometry" />
        </mxCell>
        <mxCell id="dNBZEdD4rDrv7bjeEUcx-18" style="edgeStyle=orthogonalEdgeStyle;rounded=0;orthogonalLoop=1;jettySize=auto;html=1;entryX=0.5;entryY=1;entryDx=0;entryDy=0;" parent="1" source="dNBZEdD4rDrv7bjeEUcx-13" target="dNBZEdD4rDrv7bjeEUcx-16" edge="1">
          <mxGeometry relative="1" as="geometry">
            <Array as="points">
              <mxPoint x="450" y="250" />
              <mxPoint x="390" y="250" />
              <mxPoint x="390" y="330" />
              <mxPoint x="340" y="330" />
            </Array>
          </mxGeometry>
        </mxCell>
        <mxCell id="dNBZEdD4rDrv7bjeEUcx-13" value="prune last 23 bits" style="ellipse;whiteSpace=wrap;html=1;fillColor=#ffe6cc;strokeColor=#d79b00;" parent="1" vertex="1">
          <mxGeometry x="410" y="260" width="80" height="50" as="geometry" />
        </mxCell>
        <mxCell id="dNBZEdD4rDrv7bjeEUcx-23" style="edgeStyle=orthogonalEdgeStyle;rounded=0;orthogonalLoop=1;jettySize=auto;html=1;entryX=0.5;entryY=1;entryDx=0;entryDy=0;" parent="1" source="dNBZEdD4rDrv7bjeEUcx-14" target="dNBZEdD4rDrv7bjeEUcx-22" edge="1">
          <mxGeometry relative="1" as="geometry" />
        </mxCell>
        <mxCell id="dNBZEdD4rDrv7bjeEUcx-14" value="" style="shape=trapezoid;perimeter=trapezoidPerimeter;whiteSpace=wrap;html=1;fixedSize=1;fillColor=#dae8fc;strokeColor=#6c8ebf;" parent="1" vertex="1">
          <mxGeometry x="285" y="160" width="220" height="50" as="geometry" />
        </mxCell>
        <mxCell id="dNBZEdD4rDrv7bjeEUcx-17" style="edgeStyle=orthogonalEdgeStyle;rounded=0;orthogonalLoop=1;jettySize=auto;html=1;exitX=0.5;exitY=0;exitDx=0;exitDy=0;entryX=0.25;entryY=1;entryDx=0;entryDy=0;" parent="1" source="dNBZEdD4rDrv7bjeEUcx-16" target="dNBZEdD4rDrv7bjeEUcx-14" edge="1">
          <mxGeometry relative="1" as="geometry" />
        </mxCell>
        <mxCell id="dNBZEdD4rDrv7bjeEUcx-16" value="2&#39;s complement" style="ellipse;whiteSpace=wrap;html=1;aspect=fixed;fillColor=#ffe6cc;strokeColor=#d79b00;" parent="1" vertex="1">
          <mxGeometry x="305" y="240" width="70" height="70" as="geometry" />
        </mxCell>
        <mxCell id="dNBZEdD4rDrv7bjeEUcx-19" value="" style="endArrow=none;html=1;rounded=0;entryX=1;entryY=0.5;entryDx=0;entryDy=0;exitX=0;exitY=0.5;exitDx=0;exitDy=0;" parent="1" source="dNBZEdD4rDrv7bjeEUcx-20" target="dNBZEdD4rDrv7bjeEUcx-14" edge="1">
          <mxGeometry width="50" height="50" relative="1" as="geometry">
            <mxPoint x="540" y="185" as="sourcePoint" />
            <mxPoint x="430" y="150" as="targetPoint" />
          </mxGeometry>
        </mxCell>
        <mxCell id="dNBZEdD4rDrv7bjeEUcx-20" value="f sign" style="text;html=1;align=center;verticalAlign=middle;whiteSpace=wrap;rounded=0;" parent="1" vertex="1">
          <mxGeometry x="580" y="170" width="60" height="30" as="geometry" />
        </mxCell>
        <mxCell id="dNBZEdD4rDrv7bjeEUcx-24" style="edgeStyle=orthogonalEdgeStyle;rounded=0;orthogonalLoop=1;jettySize=auto;html=1;entryX=0.5;entryY=1;entryDx=0;entryDy=0;" parent="1" source="dNBZEdD4rDrv7bjeEUcx-22" target="dNBZEdD4rDrv7bjeEUcx-25" edge="1">
          <mxGeometry relative="1" as="geometry">
            <mxPoint x="395" y="40" as="targetPoint" />
          </mxGeometry>
        </mxCell>
        <mxCell id="dNBZEdD4rDrv7bjeEUcx-22" value="output handling logic" style="rounded=0;whiteSpace=wrap;html=1;fillColor=#e1d5e7;strokeColor=#9673a6;" parent="1" vertex="1">
          <mxGeometry x="281.25" y="70" width="227.5" height="60" as="geometry" />
        </mxCell>
        <mxCell id="dNBZEdD4rDrv7bjeEUcx-25" value="i" style="text;html=1;align=center;verticalAlign=middle;whiteSpace=wrap;rounded=0;" parent="1" vertex="1">
          <mxGeometry x="365" y="10" width="60" height="30" as="geometry" />
        </mxCell>
        <mxCell id="eB7ZXws49ogGQsp6AhpM-1" value="" style="shape=or;whiteSpace=wrap;html=1;fillColor=#f8cecc;strokeColor=#b85450;rotation=-180;" vertex="1" parent="1">
          <mxGeometry x="530" y="170" width="40" height="55" as="geometry" />
        </mxCell>
        <mxCell id="eB7ZXws49ogGQsp6AhpM-3" value="" style="endArrow=none;html=1;rounded=0;entryX=0;entryY=0.25;entryDx=0;entryDy=0;entryPerimeter=0;" edge="1" parent="1" target="eB7ZXws49ogGQsp6AhpM-1">
          <mxGeometry width="50" height="50" relative="1" as="geometry">
            <mxPoint x="580" y="211" as="sourcePoint" />
            <mxPoint x="470" y="300" as="targetPoint" />
          </mxGeometry>
        </mxCell>
        <mxCell id="eB7ZXws49ogGQsp6AhpM-4" value="is signed" style="text;html=1;align=center;verticalAlign=middle;whiteSpace=wrap;rounded=0;" vertex="1" parent="1">
          <mxGeometry x="580" y="195" width="60" height="30" as="geometry" />
        </mxCell>
      </root>
    </mxGraphModel>
  </diagram>
</mxfile>
